<svg xmlns="http://www.w3.org/2000/svg" xmlns:xlink="http://www.w3.org/1999/xlink"
    viewBox="0 0 1080 1080" width="1080" height="1080" preserveAspectRatio="xMidYMid meet"
    style="width: 100%; height: 100%; transform: translate3d(0px, 0px, 0px); content-visibility: visible;">
    <defs>
        <clipPath id="__lottie_element_16">
            <rect width="1080" height="1080" x="0" y="0"></rect>
        </clipPath>
    </defs>
    <g clip-path="url(#__lottie_element_16)">
        <g transform="matrix(1,0,0,1,0,0)" opacity="1" style="display: block;">
            <g opacity="1" transform="matrix(1,0,0,1,866.9739990234375,399.6860046386719)">
                <path fill="rgb(244,244,244)" fill-opacity="1"
                    d=" M0.007000000216066837,44.78799819946289 C-24.729999542236328,44.78799819946289 -44.79199981689453,24.738000869750977 -44.79199981689453,0.0010000000474974513 C-44.79199981689453,-24.736000061035156 -24.731000900268555,-44.79600143432617 0.007000000216066837,-44.79600143432617 C24.743999481201172,-44.79600143432617 44.79199981689453,-24.73699951171875 44.79199981689453,0.0010000000474974513 C44.79199981689453,24.73900032043457 24.743000030517578,44.78799819946289 0.007000000216066837,44.78799819946289z"></path>
            </g>
            <g opacity="1" transform="matrix(1,0,0,1,297.24700927734375,721.2219848632812)">
                <path fill="rgb(244,244,244)" fill-opacity="1"
                    d=" M0.007000000216066837,32.89699935913086 C-18.163000106811523,32.89699935913086 -32.89799880981445,18.16900062561035 -32.89799880981445,0 C-32.89799880981445,-18.170000076293945 -18.163000106811523,-32.90399932861328 0.007000000216066837,-32.90399932861328 C18.177000045776367,-32.90399932861328 32.90299987792969,-18.170000076293945 32.90299987792969,0 C32.90299987792969,18.16900062561035 18.177000045776367,32.89699935913086 0.007000000216066837,32.89699935913086z"></path>
            </g>
            <g opacity="1" transform="matrix(1,0,0,1,196.44500732421875,544.7449951171875)">
                <path fill="rgb(244,244,244)" fill-opacity="1"
                    d=" M0.004000000189989805,44.78799819946289 C-24.732999801635742,44.78799819946289 -44.792999267578125,24.738000869750977 -44.792999267578125,0.0010000000474974513 C-44.792999267578125,-24.736000061035156 -24.733999252319336,-44.79600143432617 0.004000000189989805,-44.79600143432617 C24.742000579833984,-44.79600143432617 44.79100036621094,-24.73699951171875 44.79100036621094,0.0010000000474974513 C44.79100036621094,24.73900032043457 24.740999221801758,44.78799819946289 0.004000000189989805,44.78799819946289z"></path>
            </g>
        </g>
        <g transform="matrix(1,0,0,1,0,0)" opacity="1" style="display: block;">
            <g opacity="1" transform="matrix(1,0,0,1,505.20599365234375,505.635009765625)">
                <path fill="rgb(255,255,255)" fill-opacity="1"
                    d=" M262.8919982910156,215.8560028076172 C262.8919982910156,215.8560028076172 -262.8919982910156,215.8560028076172 -262.8919982910156,215.8560028076172 C-275.8030090332031,215.8560028076172 -286.2699890136719,205.38800048828125 -286.2699890136719,192.4770050048828 C-286.2699890136719,192.4770050048828 -286.2699890136719,-192.4770050048828 -286.2699890136719,-192.4770050048828 C-286.2699890136719,-205.38900756835938 -275.8030090332031,-215.8560028076172 -262.8919982910156,-215.8560028076172 C-262.8919982910156,-215.8560028076172 262.8919982910156,-215.8560028076172 262.8919982910156,-215.8560028076172 C275.8039855957031,-215.8560028076172 286.2699890136719,-205.38900756835938 286.2699890136719,-192.4770050048828 C286.2699890136719,-192.4770050048828 286.2699890136719,192.4770050048828 286.2699890136719,192.4770050048828 C286.2699890136719,205.38800048828125 275.8039855957031,215.8560028076172 262.8919982910156,215.8560028076172z"></path>
            </g>
            <g opacity="1" transform="matrix(1,0,0,1,505.20599365234375,505.635009765625)">
                <path stroke-linecap="round" stroke-linejoin="round" fill-opacity="0"
                    stroke="rgb(41,41,46)" stroke-opacity="1" stroke-width="3"
                    d=" M-262.8909912109375,-215.0760040283203 C-275.35198974609375,-215.0760040283203 -285.49200439453125,-204.93699645996094 -285.49200439453125,-192.47500610351562 C-285.49200439453125,-192.47500610351562 -285.49200439453125,192.47799682617188 -285.49200439453125,192.47799682617188 C-285.49200439453125,204.94000244140625 -275.3529968261719,215.0780029296875 -262.8909912109375,215.0780029296875 C-262.8909912109375,215.0780029296875 262.89300537109375,215.0780029296875 262.89300537109375,215.0780029296875 C275.3550109863281,215.0780029296875 285.49200439453125,204.94000244140625 285.49200439453125,192.47799682617188 C285.49200439453125,192.47799682617188 285.49200439453125,-192.4759979248047 285.49200439453125,-192.4759979248047 C285.49200439453125,-204.93800354003906 275.3550109863281,-215.0760040283203 262.89300537109375,-215.0760040283203 C262.89300537109375,-215.0760040283203 -262.8909912109375,-215.0760040283203 -262.8909912109375,-215.0760040283203 C-262.8909912109375,-215.0760040283203 -262.8909912109375,-215.0760040283203 -262.8909912109375,-215.0760040283203z"></path>
            </g>
            <g opacity="1" transform="matrix(1,0,0,1,505.2049865722656,313.2279968261719)">
                <path fill="rgb(41,41,46)" fill-opacity="1"
                    d=" M-286.2690124511719,-0.0729999989271164 C-286.2690124511719,-0.0729999989271164 -286.2690124511719,23.45199966430664 -286.2690124511719,23.45199966430664 C-286.2690124511719,23.45199966430664 286.2690124511719,23.45199966430664 286.2690124511719,23.45199966430664 C286.2690124511719,23.45199966430664 286.2690124511719,-0.0729999989271164 286.2690124511719,-0.0729999989271164 C286.2690124511719,-12.984999656677246 275.802001953125,-23.45199966430664 262.8900146484375,-23.45199966430664 C262.8900146484375,-23.45199966430664 -262.8900146484375,-23.45199966430664 -262.8900146484375,-23.45199966430664 C-275.802001953125,-23.45199966430664 -286.2690124511719,-12.984999656677246 -286.2690124511719,-0.0729999989271164z"></path>
            </g>
            <g opacity="1" transform="matrix(1,0,0,1,0,0)">
                <g opacity="1" transform="matrix(1,0,0,1,690.698974609375,487.635009765625)">
                    <path stroke-linecap="butt" stroke-linejoin="miter" fill-opacity="0"
                        stroke-miterlimit="4" stroke="rgb(41,41,46)" stroke-opacity="1"
                        stroke-width="3"
                        d=" M0.0010000000474974513,-61.301998138427734 C-33.801998138427734,-61.301998138427734 -61.301998138427734,-33.801998138427734 -61.301998138427734,0 C-61.301998138427734,33.801998138427734 -33.801998138427734,61.301998138427734 0.0010000000474974513,61.301998138427734 C33.803001403808594,61.301998138427734 61.301998138427734,33.801998138427734 61.301998138427734,0 C61.301998138427734,-33.801998138427734 33.803001403808594,-61.301998138427734 0.0010000000474974513,-61.301998138427734z"></path>
                </g>
                <g opacity="1" transform="matrix(1,0,0,1,707.3660278320312,477.04901123046875)">
                    <path fill="rgb(245,143,32)" fill-opacity="1"
                        d=" M22.73699951171875,19.70599937438965 C22.73699951171875,19.70599937438965 22.73699951171875,-19.707000732421875 22.73699951171875,-19.707000732421875 C22.73699951171875,-19.707000732421875 -22.738000869750977,-19.707000732421875 -22.738000869750977,-19.707000732421875 C-22.738000869750977,-19.707000732421875 -22.738000869750977,11.217000007629395 -22.738000869750977,11.217000007629395 C-22.738000869750977,11.217000007629395 10.88599967956543,11.217000007629395 10.88599967956543,11.217000007629395 C10.88599967956543,11.217000007629395 22.73699951171875,19.70599937438965 22.73699951171875,19.70599937438965z"></path>
                </g>
                <g opacity="1" transform="matrix(1,0,0,1,682.0460205078125,498.7460021972656)">
                    <path fill="rgb(226,116,0)" fill-opacity="1"
                        d=" M-30.75200080871582,26.652000427246094 C-30.75200080871582,26.652000427246094 -30.75200080871582,-26.652000427246094 -30.75200080871582,-26.652000427246094 C-30.75200080871582,-26.652000427246094 30.75200080871582,-26.652000427246094 30.75200080871582,-26.652000427246094 C30.75200080871582,-26.652000427246094 30.75200080871582,15.170999526977539 30.75200080871582,15.170999526977539 C30.75200080871582,15.170999526977539 -14.722999572753906,15.170999526977539 -14.722999572753906,15.170999526977539 C-14.722999572753906,15.170999526977539 -30.75200080871582,26.652000427246094 -30.75200080871582,26.652000427246094z"></path>
                </g>
                <g opacity="1" transform="matrix(1,0,0,1,665.2349853515625,493.4150085449219)">
                    <path fill="rgb(255,255,255)" fill-opacity="1"
                        d=" M0,-5.329999923706055 C2.943000078201294,-5.329999923706055 5.329999923706055,-2.944000005722046 5.329999923706055,0 C5.329999923706055,2.944000005722046 2.943000078201294,5.329999923706055 0,5.329999923706055 C-2.944000005722046,5.329999923706055 -5.329999923706055,2.944000005722046 -5.329999923706055,0 C-5.329999923706055,-2.944000005722046 -2.944000005722046,-5.329999923706055 0,-5.329999923706055z"></path>
                </g>
                <g opacity="1" transform="matrix(1,0,0,1,682.0460205078125,493.4150085449219)">
                    <path fill="rgb(255,255,255)" fill-opacity="1"
                        d=" M0,-5.329999923706055 C2.943000078201294,-5.329999923706055 5.329999923706055,-2.944000005722046 5.329999923706055,0 C5.329999923706055,2.944000005722046 2.943000078201294,5.329999923706055 0,5.329999923706055 C-2.943000078201294,5.329999923706055 -5.329999923706055,2.944000005722046 -5.329999923706055,0 C-5.329999923706055,-2.944000005722046 -2.943000078201294,-5.329999923706055 0,-5.329999923706055z"></path>
                </g>
                <g opacity="1" transform="matrix(1,0,0,1,698.8569946289062,493.4150085449219)">
                    <path fill="rgb(255,255,255)" fill-opacity="1"
                        d=" M0,-5.329999923706055 C2.943000078201294,-5.329999923706055 5.329999923706055,-2.944000005722046 5.329999923706055,0 C5.329999923706055,2.944000005722046 2.943000078201294,5.329999923706055 0,5.329999923706055 C-2.944000005722046,5.329999923706055 -5.329999923706055,2.944000005722046 -5.329999923706055,0 C-5.329999923706055,-2.944000005722046 -2.944000005722046,-5.329999923706055 0,-5.329999923706055z"></path>
                </g>
            </g>
            <g opacity="1"
                transform="matrix(1.3150933980941772,0,0,1.3150933980941772,-100.73977661132812,-153.65057373046875)">
                <g opacity="1" transform="matrix(1,0,0,1,319.7139892578125,487.635009765625)">
                    <path stroke-linecap="butt" stroke-linejoin="miter" fill-opacity="0"
                        stroke-miterlimit="4" stroke="rgb(41,41,46)" stroke-opacity="1"
                        stroke-width="3"
                        d=" M0,-61.301998138427734 C-33.801998138427734,-61.301998138427734 -61.301998138427734,-33.801998138427734 -61.301998138427734,0 C-61.301998138427734,33.801998138427734 -33.801998138427734,61.301998138427734 0,61.301998138427734 C33.801998138427734,61.301998138427734 61.301998138427734,33.801998138427734 61.301998138427734,0 C61.301998138427734,-33.801998138427734 33.801998138427734,-61.301998138427734 0,-61.301998138427734z"></path>
                </g>
                <g opacity="1" transform="matrix(1,0,0,1,319.28399658203125,488.0660095214844)">
                    <path fill="rgb(226,116,0)" fill-opacity="1"
                        d=" M31.968000411987305,18.93899917602539 C33.23899841308594,19.78700065612793 33.62200164794922,21.485000610351562 32.834999084472656,22.79800033569336 C32.834999084472656,22.79800033569336 29.386999130249023,28.542999267578125 29.386999130249023,28.542999267578125 C28.472000122070312,30.097000122070312 26.993999481201172,31.239999771118164 25.26099967956543,31.732999801635742 C19.530000686645508,33.305999755859375 6.892000198364258,33.62200164794922 -13.366000175476074,13.366000175476074 C-33.62200164794922,-6.892000198364258 -33.305999755859375,-19.531999588012695 -31.732999801635742,-25.26099967956543 C-31.239999771118164,-26.996000289916992 -30.097999572753906,-28.474000930786133 -28.54599952697754,-29.388999938964844 C-28.54599952697754,-29.388999938964844 -22.798999786376953,-32.83700180053711 -22.798999786376953,-32.83700180053711 C-21.48900032043457,-33.62200164794922 -19.791000366210938,-33.24100112915039 -18.94300079345703,-31.968000411987305 C-18.94300079345703,-31.968000411987305 -9.779999732971191,-18.224000930786133 -9.779999732971191,-18.224000930786133 C-8.951000213623047,-16.97599983215332 -9.222000122070312,-15.298999786376953 -10.404999732971191,-14.376999855041504 C-10.404999732971191,-14.376999855041504 -15.550999641418457,-10.376999855041504 -15.550999641418457,-10.376999855041504 C-16.666000366210938,-9.517000198364258 -16.98699951171875,-7.96999979019165 -16.304000854492188,-6.736999988555908 C-14.793999671936035,-4.020999908447266 -13.36299991607666,-0.8199999928474426 -6.2769999504089355,6.275000095367432 C0.8090000152587891,13.369999885559082 4.019000053405762,14.791999816894531 6.735000133514404,16.302000045776367 C7.968999862670898,16.985000610351562 9.512999534606934,16.663999557495117 10.373000144958496,15.54699993133545 C10.373000144958496,15.54699993133545 14.37600040435791,10.404000282287598 14.37600040435791,10.404000282287598 C15.29800033569336,9.218999862670898 16.97599983215332,8.946999549865723 18.222999572753906,9.779000282287598 C18.222999572753906,9.779000282287598 31.966999053955078,18.93899917602539 31.966999053955078,18.93899917602539 C31.966999053955078,18.93899917602539 31.968000411987305,18.93899917602539 31.968000411987305,18.93899917602539z"></path>
                </g>
            </g>
            <g opacity="1"
                transform="matrix(1.0000096559524536,0,0,1.0000096559524536,-0.0048828125,-0.00469970703125)">
                <g opacity="1" transform="matrix(1,0,0,1,505.2070007324219,487.635009765625)">
                    <path stroke-linecap="round" stroke-linejoin="round" fill-opacity="0"
                        stroke="rgb(41,41,46)" stroke-opacity="1" stroke-width="3"
                        d=" M0,-61.301998138427734 C-33.801998138427734,-61.301998138427734 -61.30099868774414,-33.801998138427734 -61.30099868774414,0 C-61.30099868774414,33.801998138427734 -33.80099868774414,61.301998138427734 0,61.301998138427734 C33.80099868774414,61.301998138427734 61.301998138427734,33.801998138427734 61.301998138427734,0 C61.301998138427734,-33.801998138427734 33.801998138427734,-61.301998138427734 0,-61.301998138427734z"></path>
                </g>
                <g opacity="1" transform="matrix(1,0,0,1,505.20599365234375,487.6369934082031)">
                    <path fill="rgb(245,143,32)" fill-opacity="1"
                        d=" M32.62099838256836,22.24799919128418 C32.62099838256836,22.24799919128418 -32.36399841308594,22.24799919128418 -32.36399841308594,22.24799919128418 C-33.88600158691406,22.256000518798828 -35.125999450683594,21.027999877929688 -35.13399887084961,19.506999969482422 C-35.13399887084961,19.506999969482422 -35.361000061035156,-19.44099998474121 -35.361000061035156,-19.44099998474121 C-35.36899948120117,-20.79800033569336 -34.275001525878906,-21.90399932861328 -32.917999267578125,-21.910999298095703 C-32.917999267578125,-21.910999298095703 32.66699981689453,-22.24799919128418 32.66699981689453,-22.24799919128418 C34.02299880981445,-22.2549991607666 35.12699890136719,-21.16200065612793 35.1349983215332,-19.80699920654297 C35.1349983215332,-19.80699920654297 35.36199951171875,19.47800064086914 35.36199951171875,19.47800064086914 C35.369998931884766,21 34.141998291015625,22.239999771118164 32.62099838256836,22.24799919128418z"></path>
                </g>
                <g opacity="1" transform="matrix(1,0,0,1,505.0769958496094,477.9949951171875)">
                    <path fill="rgb(226,116,0)" fill-opacity="1"
                        d=" M34.564998626708984,-11.869999885559082 C30.684999465942383,-9.020000457763672 2.505000114440918,11.720000267028809 2.4749999046325684,11.739999771118164 C0.5849999785423279,12.609999656677246 -0.6449999809265137,12.579999923706055 -2.515000104904175,11.640000343322754 C-2.515000104904175,11.640000343322754 -34.564998626708984,-11.489999771118164 -34.564998626708984,-11.489999771118164 C-34.125,-11.970000267028809 -33.48500061035156,-12.260000228881836 -32.78499984741211,-12.270000457763672 C-32.78499984741211,-12.270000457763672 32.79499816894531,-12.609999656677246 32.79499816894531,-12.609999656677246 C33.48500061035156,-12.609999656677246 34.1150016784668,-12.329999923706055 34.564998626708984,-11.869999885559082z"></path>
                </g>
            </g>
        </g>
        <g
            transform="matrix(0.9999862909317017,0.005236384458839893,-0.005236384458839893,0.9999862909317017,4.23529052734375,-4.61859130859375)"
            opacity="1" style="display: block;">
            <g opacity="1" transform="matrix(1,0,0,1,869.8259887695312,538.2860107421875)">
                <path fill="rgb(9,9,9)" fill-opacity="1"
                    d=" M43.5099983215332,-87.91400146484375 C43.5099983215332,-87.91400146484375 50.83100128173828,-52.82899856567383 59.57600021362305,-42.2140007019043 C84.7509994506836,-11.656000137329102 95.8010025024414,25.049999237060547 77.73600006103516,47.439998626708984 C59.67100143432617,69.83200073242188 -66.1760025024414,87.91400146484375 -82.26100158691406,44.185001373291016 C-95.802001953125,7.369999885559082 -81.27400207519531,0.8519999980926514 -81.09700012207031,-31.04800033569336 C-81.01699829101562,-45.481998443603516 -79.01899719238281,-75.92400360107422 -79.01899719238281,-75.92400360107422"></path>
            </g>
            <g opacity="1"
                transform="matrix(0.9997753500938416,0.021196145564317703,-0.021196145564317703,0.9997753500938416,13.270751953125,-16.268310546875)">
                <g opacity="1"
                    transform="matrix(0.981151819229126,0.19323845207691193,-0.19323845207691193,0.981151819229126,127.30694580078125,-113.6856689453125)">
                    <g opacity="1" transform="matrix(1,0,0,1,606.1119995117188,579.343017578125)">
                        <path fill="rgb(246,231,200)" fill-opacity="1"
                            d=" M20.99697494506836,7.957742691040039 C20.99697494506836,7.957742691040039 4.676424980163574,-20.805885314941406 4.676424980163574,-20.805885314941406 C3.1751904487609863,-23.453460693359375 -0.2906293570995331,-24.29002571105957 -2.854267120361328,-22.52583122253418 C-5.127199172973633,-20.962003707885742 -5.654098033905029,-17.804765701293945 -4.290853977203369,-15.404736518859863 C-4.290853977203369,-15.404736518859863 -0.7924616932868958,-9.236249923706055 -0.7924616932868958,-9.236249923706055 C-0.7924616932868958,-9.236249923706055 -20.699729919433594,-23.581022262573242 -20.699729919433594,-23.581022262573242 C-22.885549545288086,-25.214397430419922 -26.612215042114258,-25.820363998413086 -28.283666610717773,-23.248760223388672 C-29.770389556884766,-21.257802963256836 -29.625112533569336,-18.55756950378418 -28.083444595336914,-16.739276885986328 C-28.100799560546875,-16.720544815063477 -28.12506866455078,-16.70490074157715 -28.139816284179688,-16.6834716796875 C-28.150779724121094,-16.666954040527344 -28.153833389282227,-16.646347045898438 -28.165189743041992,-16.62782859802246 C-28.165189743041992,-16.62782859802246 -31.536090850830078,-19.145780563354492 -31.536090850830078,-19.145780563354492 C-34.13506317138672,-21.088605880737305 -37.95037078857422,-20.254234313964844 -39.42194747924805,-17.152782440185547 C-40.498680114746094,-14.88286018371582 -39.65690231323242,-12.150814056396484 -37.64551544189453,-10.647037506103516 C-37.64551544189453,-10.647037506103516 -36.21150207519531,-9.575434684753418 -36.21150207519531,-9.575434684753418 C-36.223480224609375,-9.519220352172852 -36.226158142089844,-9.46213150024414 -36.2164421081543,-9.406167984008789 C-38.497005462646484,-10.40859603881836 -41.26857376098633,-9.675710678100586 -42.70903778076172,-7.461506366729736 C-44.23599624633789,-5.1148529052734375 -43.491188049316406,-1.9520010948181152 -41.247989654541016,-0.27655577659606934 C-41.247989654541016,-0.27655577659606934 -37.68683624267578,2.385657787322998 -37.68683624267578,2.385657787322998 C-37.837799072265625,2.3843777179718018 -37.98583221435547,2.444972276687622 -38.086326599121094,2.5781538486480713 C-38.14075469970703,2.655048370361328 -38.16366195678711,2.7434775829315186 -38.167869567871094,2.8332629203796387 C-40.364891052246094,2.5219886302948 -42.68041229248047,3.614516258239746 -43.71615982055664,5.92824125289917 C-44.72305679321289,8.1790189743042 -43.86033630371094,10.83824348449707 -41.88489532470703,12.315003395080566 C-41.88489532470703,12.315003395080566 -11.82624626159668,34.77680969238281 -11.82624626159668,34.77680969238281 C-3.2254552841186523,41.20533752441406 8.418694496154785,41.772369384765625 17.601573944091797,36.20860290527344 C25.650983810424805,31.33197021484375 28.361032485961914,20.93698501586914 23.717552185058594,12.751710891723633 C23.717552185058594,12.751710891723633 20.997278213500977,7.958742618560791 20.997278213500977,7.958742618560791 C20.997278213500977,7.958742618560791 20.99697494506836,7.957742691040039 20.99697494506836,7.957742691040039z"></path>
                    </g>
                    <g opacity="1" transform="matrix(1,0,0,1,596.3590087890625,560.9110107421875)">
                        <path fill="rgb(12,12,12)" fill-opacity="1"
                            d=" M1.304787516593933,15.989683151245117 C1.1468673944473267,16.198366165161133 0.8501381874084473,16.242984771728516 0.6370619535446167,16.088672637939453 C0.6370619535446167,16.088672637939453 -18.277917861938477,2.4227356910705566 -18.277917861938477,2.4227356910705566 C-18.493993759155273,2.266333818435669 -18.542219161987305,1.9649083614349365 -18.386512756347656,1.7488319873809814 C-18.256200790405273,1.5343103408813477 -17.92738151550293,1.484923243522644 -17.712305068969727,1.6409324407577515 C-17.712305068969727,1.6409324407577515 1.203066110610962,15.306565284729004 1.203066110610962,15.306565284729004 C1.419142484664917,15.462966918945312 1.467671275138855,15.76369571685791 1.3112692832946777,15.980772018432617 C1.3112692832946777,15.980772018432617 1.304787516593933,15.989683151245117 1.304787516593933,15.989683151245117z"></path>
                    </g>
                    <g opacity="1" transform="matrix(1,0,0,1,588.9929809570312,568.697998046875)">
                        <path fill="rgb(12,12,12)" fill-opacity="1"
                            d=" M2.8728065490722656,16.710861206054688 C2.714886426925659,16.919546127319336 2.4181573390960693,16.964162826538086 2.205080986022949,16.809850692749023 C2.205080986022949,16.809850692749023 -18.90460777282715,1.560145378112793 -18.90460777282715,1.560145378112793 C-19.120683670043945,1.4044396877288818 -19.168909072875977,1.1023178100585938 -19.012508392333984,0.8862415552139282 C-18.8681583404541,0.6896834969520569 -18.55467987060547,0.6216364502906799 -18.338603973388672,0.7780383825302124 C-18.338603973388672,0.7780383825302124 2.7713887691497803,16.028047561645508 2.7713887691497803,16.028047561645508 C2.9874651432037354,16.183752059936523 3.0356903076171875,16.48587417602539 2.8792884349823,16.701950073242188 C2.8792884349823,16.701950073242188 2.8728065490722656,16.710861206054688 2.8728065490722656,16.710861206054688z"></path>
                    </g>
                    <g opacity="1" transform="matrix(1,0,0,1,584.4409790039062,579.7490234375)">
                        <path fill="rgb(12,12,12)" fill-opacity="1"
                            d=" M1.200408697128296,14.911463737487793 C1.0424885749816895,15.120146751403809 0.745455801486969,15.165764808654785 0.5333794951438904,15.011452674865723 C0.5333794951438904,15.011452674865723 -16.306732177734375,2.845057725906372 -16.306732177734375,2.845057725906372 C-16.521808624267578,2.6890485286712646 -16.570730209350586,2.3879265785217285 -16.41432762145996,2.1718502044677734 C-16.25362205505371,1.955863118171692 -15.956500053405762,1.90724515914917 -15.740424156188965,2.062950849533081 C-15.740424156188965,2.062950849533081 1.0986874103546143,14.229345321655273 1.0986874103546143,14.229345321655273 C1.3147636651992798,14.385050773620605 1.3636852502822876,14.685476303100586 1.2072832584381104,14.9015531539917 C1.2072832584381104,14.9015531539917 1.200408697128296,14.911463737487793 1.200408697128296,14.911463737487793z"></path>
                    </g>
                    <g opacity="1" transform="matrix(1,0,0,1,623.0980224609375,563.2069702148438)">
                        <path fill="rgb(246,231,200)" fill-opacity="1"
                            d=" M4.010975360870361,24.09343910217285 C4.010975360870361,24.09343910217285 -12.3098783493042,-4.669885635375977 -12.3098783493042,-4.669885635375977 C-13.811113357543945,-7.317461013793945 -17.276933670043945,-8.154025077819824 -19.8405704498291,-6.389831066131592 C-22.113502502441406,-4.826003074645996 -22.641098022460938,-1.6697651147842407 -21.277854919433594,0.7302632927894592 C-21.277854919433594,0.7302632927894592 -17.778461456298828,6.898749828338623 -17.778461456298828,6.898749828338623 C-17.778461456298828,6.898749828338623 -12.291696548461914,18.058605194091797 -12.291696548461914,18.058605194091797"></path>
                    </g>
                </g>
                <g opacity="1" transform="matrix(1,0,0,1,700.780029296875,679.9559936523438)">
                    <path fill="rgb(22,78,97)" fill-opacity="1"
                        d=" M50.03300094604492,-98.06500244140625 C50.03300094604492,-98.06500244140625 -5.61331033706665,0.7497910261154175 -5.61331033706665,0.7497910261154175 C-5.61331033706665,0.7497910261154175 -64.73454284667969,-96.97110748291016 -64.73454284667969,-96.97110748291016 C-64.73454284667969,-96.97110748291016 -124.92845153808594,-61.07426071166992 -124.92845153808594,-61.07426071166992 C-124.92845153808594,-61.07426071166992 -38.45238494873047,81.27761840820312 -38.45238494873047,81.27761840820312 C-35.76155471801758,85.66725158691406 -31.94797706604004,89.64511108398438 -27.263425827026367,92.52819061279297 C-11.34550666809082,102.32291412353516 9.496684074401855,97.35653686523438 19.28971290588379,81.44091796875 C19.28971290588379,81.44091796875 19.693222045898438,80.78223419189453 19.693222045898438,80.78223419189453 C19.693222045898438,80.78223419189453 118.26300048828125,-56.29899978637695 118.26300048828125,-56.29899978637695 C118.26300048828125,-56.29899978637695 50.03300094604492,-98.06600189208984 50.03300094604492,-98.06600189208984 C50.03300094604492,-98.06600189208984 50.03300094604492,-98.06500244140625 50.03300094604492,-98.06500244140625z"></path>
                </g>
            </g>
            <g opacity="1" transform="matrix(1,0,0,1,857.5469970703125,684.0989990234375)">
                <path fill="rgb(22,78,97)" fill-opacity="1"
                    d=" M3.5239999294281006,-92.14299774169922 C37.61600112915039,-93.75 39.04999923706055,-122.68699645996094 39.04999923706055,-122.68699645996094 C39.04999923706055,-122.68699645996094 55.94300079345703,-121.59500122070312 67.1709976196289,-120.07599639892578 C85.55500030517578,-117.58899688720703 97.68399810791016,-111.3550033569336 107.33499908447266,-101.70500183105469 C116.31300354003906,-92.72599792480469 121.77899932861328,-83.01200103759766 115.99500274658203,-20.993000030517578 C111.80599975585938,23.913000106811523 114.7322006225586,122.3365707397461 114.7322006225586,122.3365707397461 C114.7322006225586,122.3365707397461 -90.90579223632812,123.27144622802734 -90.90579223632812,123.27144622802734 C-90.90579223632812,123.27144622802734 -103.33300018310547,-6.7789998054504395 -105.0530014038086,-26.993999481201172 C-108.33599853515625,-65.58200073242188 -121.77799987792969,-87.33300018310547 -102.98999786376953,-107.21099853515625 C-89.36499786376953,-121.62699890136719 -54.19300079345703,-122.68699645996094 -40.03200149536133,-122.68499755859375 C-39.79999923706055,-122.68499755859375 -42.904998779296875,-89.95500183105469 3.5239999294281006,-92.14399719238281 C3.5239999294281006,-92.14399719238281 3.5239999294281006,-92.14299774169922 3.5239999294281006,-92.14299774169922z"></path>
            </g>
            <g opacity="1" transform="matrix(1,0,0,1,755.2830200195312,684.0900268554688)">
                <path fill="rgb(12,12,12)" fill-opacity="1"
                    d=" M-1.590999960899353,-33.43600082397461 C-1.6100000143051147,-33.71099853515625 -1.847000002861023,-33.922000885009766 -2.121000051498413,-33.904998779296875 C-2.3980000019073486,-33.88600158691406 -2.6070001125335693,-33.64899826049805 -2.5889999866485596,-33.374000549316406 C-2.5889999866485596,-33.374000549316406 0.9872378706932068,25.412681579589844 0.9872378706932068,25.412681579589844 C1.0022379159927368,25.663681030273438 1.2012379169464111,25.860681533813477 1.4462379217147827,25.878681182861328 C1.4682378768920898,25.880680084228516 1.49223792552948,25.880680084228516 1.517237901687622,25.878681182861328 C1.7922378778457642,25.86168098449707 2.0012378692626953,25.62468147277832 1.9852378368377686,25.349681854248047"></path>
            </g>
            <g opacity="1"
                transform="matrix(0.9999756217002869,-0.006981820799410343,0.006981820799410343,0.9999756217002869,-4.18524169921875,6.5843505859375)">
                <g opacity="1"
                    transform="matrix(0.9997014403343201,0.02443413995206356,-0.02443413995206356,0.9997014403343201,19.05364990234375,-19.55755615234375)">
                    <g opacity="1" transform="matrix(1,0,0,1,777.9390258789062,769.2839965820312)">
                        <path fill="rgb(246,231,200)" fill-opacity="1"
                            d=" M21.082000732421875,-21.07699966430664 C21.082000732421875,-21.07699966430664 -12.199000358581543,-29.163999557495117 -12.199000358581543,-29.163999557495117 C-15.263999938964844,-29.908000946044922 -18.351999282836914,-27.88800048828125 -18.84000015258789,-24.701000213623047 C-19.27199935913086,-21.875999450683594 -17.263999938964844,-19.239999771118164 -14.486000061035156,-18.565000534057617 C-14.486000061035156,-18.565000534057617 -7.349999904632568,-16.83099937438965 -7.349999904632568,-16.83099937438965 C-7.349999904632568,-16.83099937438965 -32.29499816894531,-11.982999801635742 -32.29499816894531,-11.982999801635742 C-35.077999114990234,-11.491999626159668 -38.18000030517578,-9.109999656677246 -37.42399978637695,-6.025000095367432 C-36.97700119018555,-3.490000009536743 -34.83399963378906,-1.684999942779541 -32.36899948120117,-1.5579999685287476 C-32.367000579833984,-1.531000018119812 -32.374000549316406,-1.503000020980835 -32.367000579833984,-1.4759999513626099 C-32.362998962402344,-1.4550000429153442 -32.35100173950195,-1.437999963760376 -32.34400177001953,-1.4179999828338623 C-32.34400177001953,-1.4179999828338623 -36.6349983215332,-0.6610000133514404 -36.6349983215332,-0.6610000133514404 C-39.94300079345703,-0.07699999958276749 -42.01900100708008,3.3940000534057617 -40.7239990234375,6.703999996185303 C-39.775001525878906,9.128000259399414 -37.117000579833984,10.428999900817871 -34.55500030517578,9.977999687194824 C-34.55500030517578,9.977999687194824 -32.729000091552734,9.656000137329102 -32.729000091552734,9.656000137329102 C-32.694000244140625,9.704999923706055 -32.652000427246094,9.746999740600586 -32.60499954223633,9.779999732971191 C-34.979000091552734,10.789999961853027 -36.391998291015625,13.402000427246094 -35.74300003051758,16.05900001525879 C-35.055999755859375,18.875999450683594 -32.14099884033203,20.558000564575195 -29.28499984741211,20.05500030517578 C-29.28499984741211,20.05500030517578 -24.749000549316406,19.2549991607666 -24.749000549316406,19.2549991607666 C-24.85700035095215,19.368000030517578 -24.91699981689453,19.523000717163086 -24.888999938964844,19.69099998474121 C-24.868999481201172,19.788000106811523 -24.816999435424805,19.867000579833984 -24.753000259399414,19.93400001525879 C-26.54800033569336,21.371000289916992 -27.364999771118164,23.893999099731445 -26.354000091552734,26.31599998474121 C-25.368999481201172,28.67300033569336 -22.75,29.908000946044922 -20.235000610351562,29.464000701904297 C-20.235000610351562,29.464000701904297 18.03499984741211,22.71500015258789 18.03499984741211,22.71500015258789 C28.986000061035156,20.784000396728516 37.672000885009766,12.399999618530273 39.987998962402344,1.5230000019073486 C42.01900100708008,-8.010000228881836 36.097999572753906,-17.42799949645996 26.62700080871582,-19.729999542236328 C26.62700080871582,-19.729999542236328 21.08099937438965,-21.077999114990234 21.08099937438965,-21.077999114990234 C21.08099937438965,-21.077999114990234 21.082000732421875,-21.07699966430664 21.082000732421875,-21.07699966430664z"></path>
                    </g>
                    <g opacity="1" transform="matrix(1,0,0,1,757.927001953125,765.4219970703125)">
                        <path fill="rgb(12,12,12)" fill-opacity="1"
                            d=" M12.359999656677246,-2.372999906539917 C12.404999732971191,-2.1050000190734863 12.229000091552734,-1.850000023841858 11.961999893188477,-1.7990000247955322 C11.961999893188477,-1.7990000247955322 -11.767000198364258,2.7809998989105225 -11.767000198364258,2.7809998989105225 C-12.038000106811523,2.8329999446868896 -12.300000190734863,2.6559998989105225 -12.352999687194824,2.384999990463257 C-12.42199993133545,2.134000062942505 -12.227999687194824,1.8519999980926514 -11.956999778747559,1.7990000247955322 C-11.956999778747559,1.7990000247955322 11.772000312805176,-2.7809998989105225 11.772000312805176,-2.7809998989105225 C12.043000221252441,-2.8329999446868896 12.305000305175781,-2.6559998989105225 12.357999801635742,-2.384999990463257 C12.357999801635742,-2.384999990463257 12.359999656677246,-2.372999906539917 12.359999656677246,-2.372999906539917z"></path>
                    </g>
                    <g opacity="1" transform="matrix(1,0,0,1,758.8619995117188,776.0980224609375)">
                        <path fill="rgb(12,12,12)" fill-opacity="1"
                            d=" M13.732999801635742,-2.6389999389648438 C13.777999877929688,-2.371999979019165 13.60200023651123,-2.115999937057495 13.336000442504883,-2.065000057220459 C13.336000442504883,-2.065000057220459 -13.147000312805176,3.046999931335449 -13.147000312805176,3.046999931335449 C-13.416999816894531,3.0989999771118164 -13.680000305175781,2.921999931335449 -13.732999801635742,2.6510000228881836 C-13.779000282287598,2.4030001163482666 -13.607000350952148,2.118000030517578 -13.336000442504883,2.065000057220459 C-13.336000442504883,2.065000057220459 13.145000457763672,-3.046999931335449 13.145000457763672,-3.046999931335449 C13.416999816894531,-3.0989999771118164 13.678000450134277,-2.921999931335449 13.730999946594238,-2.6510000228881836 C13.730999946594238,-2.6510000228881836 13.732999801635742,-2.6389999389648438 13.732999801635742,-2.6389999389648438z"></path>
                    </g>
                    <g opacity="1" transform="matrix(1,0,0,1,764.1069946289062,786.8410034179688)">
                        <path fill="rgb(12,12,12)" fill-opacity="1"
                            d=" M11.055000305175781,-2.121999979019165 C11.100000381469727,-1.8539999723434448 10.923999786376953,-1.5989999771118164 10.656999588012695,-1.5479999780654907 C10.656999588012695,-1.5479999780654907 -10.467000007629395,2.5299999713897705 -10.467000007629395,2.5299999713897705 C-10.73799991607666,2.5820000171661377 -11.00100040435791,2.4049999713897705 -11.053000450134277,2.134000062942505 C-11.100000381469727,1.8589999675750732 -10.927000045776367,1.6019999980926514 -10.656999588012695,1.5479999780654907 C-10.656999588012695,1.5479999780654907 10.467000007629395,-2.5299999713897705 10.467000007629395,-2.5299999713897705 C10.73799991607666,-2.5820000171661377 11,-2.4049999713897705 11.053000450134277,-2.134000062942505 C11.053000450134277,-2.134000062942505 11.055000305175781,-2.121999979019165 11.055000305175781,-2.121999979019165z"></path>
                    </g>
                </g>
                <g opacity="1" transform="matrix(1,0,0,1,906.6190185546875,687.5280151367188)">
                    <path fill="rgb(22,78,97)" fill-opacity="1"
                        d=" M-110.91200256347656,117.56300354003906 C-110.91200256347656,117.56300354003906 67.9260025024414,118.53900146484375 67.9260025024414,118.53900146484375 C69.28199768066406,118.68499755859375 70.63800048828125,118.75800323486328 71.98600006103516,118.75800323486328 C82.2509994506836,118.75800323486328 92.13700103759766,114.54199981689453 99.26100158691406,106.99099731445312 C107.3219985961914,98.44599914550781 110.91300201416016,86.61900329589844 108.96399688720703,75.03700256347656 C108.96399688720703,75.03700256347656 69.12200164794922,-84.56700134277344 69.12200164794922,-84.56700134277344 C65.68499755859375,-104.98999786376953 46.34700012207031,-118.75700378417969 25.920000076293945,-115.32599639892578 C5.497000217437744,-111.88999938964844 -8.274999618530273,-92.5469970703125 -4.839000225067139,-72.1240005493164 C-4.839000225067139,-72.1240005493164 25.715999603271484,48.111000061035156 25.715999603271484,48.111000061035156 C25.715999603271484,48.111000061035156 -110.0479965209961,52.564998626708984 -110.0479965209961,52.564998626708984 C-110.0479965209961,52.564998626708984 -110.91300201416016,117.56199645996094 -110.91300201416016,117.56199645996094 C-110.91300201416016,117.56199645996094 -110.91200256347656,117.56300354003906 -110.91200256347656,117.56300354003906z"></path>
                </g>
                <g opacity="1" transform="matrix(1,0,0,1,944.1309814453125,735.052001953125)">
                    <path fill="rgb(12,12,12)" fill-opacity="1"
                        d=" M11.581000328063965,0.07999999821186066 C11.824999809265137,0.07999999821186066 12.038000106811523,-0.09799999743700027 12.074999809265137,-0.34599998593330383 C12.116000175476074,-0.6190000176429749 11.928000450134277,-0.8730000257492065 11.654999732971191,-0.9139999747276306 C11.654999732971191,-0.9139999747276306 -11.505999565124512,-0.0729999989271164 -11.505999565124512,-0.0729999989271164 C-11.788999557495117,-0.11599999666213989 -12.034000396728516,0.0729999989271164 -12.074999809265137,0.34700000286102295 C-12.116000175476074,0.6190000176429749 -11.928000450134277,0.8730000257492065 -11.654999732971191,0.9139999747276306 C-11.654999732971191,0.9139999747276306 11.505999565124512,0.07400000095367432 11.505999565124512,0.07400000095367432 C11.531000137329102,0.07800000160932541 11.557000160217285,0.07999999821186066 11.581000328063965,0.07999999821186066z"></path>
                </g>
                <g opacity="1" transform="matrix(1,0,0,1,882.7760009765625,734.7219848632812)">
                    <path fill="rgb(12,12,12)" fill-opacity="1"
                        d=" M86.56700134277344,72.06400299072266 C86.81500244140625,72.06400299072266 87.02899932861328,71.87899780273438 87.06199645996094,71.62699890136719 C87.0979995727539,71.3550033569336 86.90499877929688,71.10399627685547 86.63099670410156,71.06700134277344 C86.63099670410156,71.06700134277344 -86.02300262451172,69.98999786376953 -86.02300262451172,69.98999786376953 C-86.02300262451172,69.98999786376953 -85.26599884033203,5.988999843597412 -85.26599884033203,5.988999843597412 C-85.26599884033203,5.988999843597412 49.68600082397461,1.246000051498413 49.68600082397461,1.246000051498413 C49.84400177001953,1.2649999856948853 50.00199890136719,1.2100000381469727 50.111000061035156,1.0980000495910645 C50.22100067138672,0.984000027179718 50.270999908447266,0.8240000009536743 50.24599838256836,0.6669999957084656 C50.24599838256836,0.6669999957084656 35.52899932861328,-71.60299682617188 35.52899932861328,-71.60299682617188 C35.48400115966797,-71.875 35.23099899291992,-72.06400299072266 34.952999114990234,-72.01300048828125 C34.680999755859375,-71.96700286865234 34.49800109863281,-71.70899963378906 34.54399871826172,-71.43699645996094 C34.54399871826172,-71.43699645996094 49.14699935913086,0.16500000655651093 49.14699935913086,0.16500000655651093 C49.14699935913086,0.16500000655651093 -85.64099884033203,4.928999900817871 -85.64099884033203,4.928999900817871 C-85.77400207519531,4.909999847412109 -85.91000366210938,4.948999881744385 -86.01599884033203,5.0320000648498535 C-86.12100219726562,5.114999771118164 -86.19000244140625,5.23799991607666 -86.2040023803711,5.372000217437744 C-86.2040023803711,5.372000217437744 -87.06900024414062,70.36900329589844 -87.06900024414062,70.36900329589844 C-87.0979995727539,70.63899993896484 -86.90599822998047,70.88400268554688 -86.63700103759766,70.91799926757812 C-86.63700103759766,70.91799926757812 86.50299835205078,72.05999755859375 86.50299835205078,72.05999755859375 C86.52400207519531,72.06300354003906 86.5459976196289,72.06400299072266 86.56700134277344,72.06400299072266z"></path>
                </g>
            </g>
            <g opacity="1" transform="matrix(1,0,0,1,0,0)">
                <g opacity="1" transform="matrix(1,0,0,1,817.2689819335938,441.4530029296875)">
                    <path fill="rgb(22,78,97)" fill-opacity="1"
                        d=" M-19.70096778869629,47.92729949951172 C-20.861967086791992,47.92729949951172 -21.96896743774414,47.249298095703125 -22.45796775817871,46.115299224853516 C-22.86796760559082,45.16230010986328 -32.40796661376953,22.394298553466797 -22.046966552734375,-11.005702018737793 C-10.820967674255371,-47.18470001220703 28.643999099731445,-47.76599884033203 29.03700065612793,-47.76599884033203 C30.694000244140625,-47.76599884033203 32.0369987487793,-46.42300033569336 32.0369987487793,-44.76599884033203 C32.0369987487793,-43.10900115966797 30.695999145507812,-41.768001556396484 29.04199981689453,-41.76599884033203 C27.613000869750977,-41.762001037597656 -6.417967319488525,-41.1327018737793 -16.315967559814453,-9.227702140808105 C-26.026968002319336,22.075298309326172 -17.04096794128418,43.525299072265625 -16.947967529296875,43.73829650878906 C-16.291967391967773,45.25929641723633 -16.991968154907227,47.025299072265625 -18.513967514038086,47.681297302246094 C-18.90096664428711,47.848297119140625 -19.304967880249023,47.92829895019531 -19.70096778869629,47.92829895019531 C-19.70096778869629,47.92829895019531 -19.70096778869629,47.92729949951172 -19.70096778869629,47.92729949951172z"></path>
                </g>
                <g opacity="1" transform="matrix(0.9888709783554077,0,0,1,8.2391357421875,0)">
                    <g opacity="1" transform="matrix(1,0,0,1,808.6190185546875,491.37701416015625)">
                        <path fill="rgb(22,78,97)" fill-opacity="1"
                            d=" M0,-22.790000915527344 C12.586000442504883,-22.790000915527344 22.790000915527344,-12.586000442504883 22.790000915527344,0 C22.790000915527344,12.586000442504883 12.586000442504883,22.790000915527344 0,22.790000915527344 C-12.586999893188477,22.790000915527344 -22.790000915527344,12.586000442504883 -22.790000915527344,0 C-22.790000915527344,-12.586000442504883 -12.586999893188477,-22.790000915527344 0,-22.790000915527344z"></path>
                    </g>
                    <g opacity="1" transform="matrix(1,0,0,1,800.3679809570312,491.37701416015625)">
                        <path fill="rgb(22,78,97)" fill-opacity="1"
                            d=" M0,-22.790000915527344 C12.586000442504883,-22.790000915527344 22.790000915527344,-12.586000442504883 22.790000915527344,0 C22.790000915527344,12.586000442504883 12.586000442504883,22.790000915527344 0,22.790000915527344 C-12.586999893188477,22.790000915527344 -22.790000915527344,12.586000442504883 -22.790000915527344,0 C-22.790000915527344,-12.586000442504883 -12.586999893188477,-22.790000915527344 0,-22.790000915527344z"></path>
                    </g>
                    <g opacity="1" transform="matrix(1,0,0,1,800.3679809570312,491.37701416015625)">
                        <path fill="rgb(245,143,32)" fill-opacity="1"
                            d=" M0,-22.790000915527344 C12.586000442504883,-22.790000915527344 22.790000915527344,-12.586000442504883 22.790000915527344,0 C22.790000915527344,12.586000442504883 12.586000442504883,22.790000915527344 0,22.790000915527344 C-12.586999893188477,22.790000915527344 -22.790000915527344,12.586000442504883 -22.790000915527344,0 C-22.790000915527344,-12.586000442504883 -12.586999893188477,-22.790000915527344 0,-22.790000915527344z"></path>
                    </g>
                    <g opacity="1" transform="matrix(1,0,0,1,805.8359985351562,491.37701416015625)">
                        <path fill="rgb(22,78,97)" fill-opacity="1"
                            d=" M0,-22.790000915527344 C12.586999893188477,-22.790000915527344 22.790000915527344,-12.586000442504883 22.790000915527344,0 C22.790000915527344,12.586000442504883 12.586999893188477,22.790000915527344 0,22.790000915527344 C-12.586999893188477,22.790000915527344 -22.790000915527344,12.586000442504883 -22.790000915527344,0 C-22.790000915527344,-12.586000442504883 -12.586999893188477,-22.790000915527344 0,-22.790000915527344z"></path>
                    </g>
                </g>
                <g opacity="1" transform="matrix(1,0,0,1,888.635009765625,493.7380065917969)">
                    <path fill="rgb(246,231,200)" fill-opacity="1"
                        d=" M-4.59499979019165,14.220999717712402 C3.4019999504089355,14.73799991607666 10.437999725341797,6.6020002365112305 10.954999923706055,-1.3949999809265137 C11.472000122070312,-9.392000198364258 5.2729997634887695,-14.220000267028809 -2.7239999771118164,-14.73799991607666 C-2.7239999771118164,-14.73799991607666 -7.190000057220459,-9.647000312805176 -7.190000057220459,-9.647000312805176 C-7.190000057220459,-9.647000312805176 -11.470999717712402,13.777000427246094 -11.470999717712402,13.777000427246094 C-11.470999717712402,13.777000427246094 -4.59499979019165,14.220999717712402 -4.59499979019165,14.220999717712402z"></path>
                </g>
                <g opacity="1" transform="matrix(1,0,0,1,857.6519775390625,554.1019897460938)">
                    <path fill="rgb(246,231,200)" fill-opacity="1"
                        d=" M-49.49399948120117,9.807000160217285 C-49.26499938964844,9.777000427246094 -46.71099853515625,52.137001037597656 2.499000072479248,48.444000244140625 C36.56700134277344,45.891998291015625 48.7140007019043,9.746000289916992 49.49399948120117,9.746000289916992 C45.82099914550781,8.965999603271484 39.637001037597656,7.829999923706055 38.005001068115234,6.959000110626221 C32.64099884033203,4.078000068664551 26.003000259399414,1.0779999494552612 24.27400016784668,-9.33899974822998 C23.277000427246094,-15.343000411987305 24.968000411987305,-46.06100082397461 24.44700050354004,-52.13600158691406 C24.44700050354004,-52.13600158691406 -27.847000122070312,-40.4640007019043 -27.847000122070312,-40.4640007019043 C-27.114999771118164,-27.634000778198242 -22.000999450683594,2.1110000610351562 -39.926998138427734,7.374000072479248 C-42.90800094604492,8.244999885559082 -46.12099838256836,9.045999526977539 -49.49399948120117,9.807000160217285z"></path>
                </g>
                <g opacity="1" transform="matrix(1,0,0,1,846.6849975585938,529.4929809570312)">
                    <path fill="rgb(12,12,12)" fill-opacity="1"
                        d=" M-18.861000061035156,19.57699966430664 C-18.1200008392334,17.21299934387207 -17.118000030517578,15.406999588012695 -16.72599983215332,11.711000442504883 C-16.027000427246094,5.10099983215332 -15.711000442504883,-0.9750000238418579 -16.381000518798828,-7.165999889373779 C-5.815999984741211,-8.571999549865723 4.326000213623047,-13.015999794006348 12.522000312805176,-19.827999114990234 C13.493000030517578,-16.242000579833984 18.832000732421875,-0.5720000267028809 17.354999542236328,2.8359999656677246 C14.5600004196167,9.277999877929688 1.4259999990463257,19.827999114990234 -17.611000061035156,19.827999114990234 C-17.611000061035156,19.827999114990234 -18.861000061035156,19.57699966430664 -18.861000061035156,19.57699966430664z"></path>
                </g>
                <g opacity="1" transform="matrix(1,0,0,1,898.6190185546875,491.37701416015625)">
                    <path fill="rgb(22,78,97)" fill-opacity="1"
                        d=" M0.8308741450309753,-22.790000915527344 C13.316527366638184,-22.790000915527344 23.439193725585938,-12.586000442504883 23.439193725585938,0 C23.439193725585938,12.586000442504883 13.316527366638184,22.790000915527344 0.8308741450309753,22.790000915527344 C-11.655778884887695,22.790000915527344 -21.77735137939453,12.586000442504883 -21.77735137939453,0 C-21.77735137939453,-12.586000442504883 -11.655778884887695,-22.790000915527344 0.8308741450309753,-22.790000915527344z"></path>
                </g>
                <g opacity="1" transform="matrix(1,0,0,1,844.5609741210938,480.3890075683594)">
                    <path fill="rgb(246,231,200)" fill-opacity="1"
                        d=" M-6.177999973297119,59.625999450683594 C14.520999908447266,58.847999572753906 39.85499954223633,47.11000061035156 41.6619987487793,19.160999298095703 C41.6619987487793,19.160999298095703 43.29399871826172,-6.057000160217285 43.29399871826172,-6.057000160217285 C45.099998474121094,-34.00600051879883 31.886999130249023,-57.61199951171875 5.572000026702881,-59.3129997253418 C-20.742000579833984,-61.01499938964844 -41.87699890136719,-39.630001068115234 -43.685001373291016,-11.680999755859375 C-43.685001373291016,-11.680999755859375 -44.40700149536133,-0.515999972820282 -44.40700149536133,-0.515999972820282 C-45.099998474121094,10.208000183105469 -43.111000061035156,61.01499938964844 -6.179999828338623,59.62699890136719 C-6.179999828338623,59.62699890136719 -6.177999973297119,59.625999450683594 -6.177999973297119,59.625999450683594z"></path>
                </g>
                <g opacity="1" transform="matrix(1,0,0,1,852.0050048828125,439.20001220703125)">
                    <path fill="rgb(9,9,9)" fill-opacity="1"
                        d=" M57.15700149536133,41.16299819946289 C57.15700149536133,41.16299819946289 29.283716201782227,50.81181335449219 29.283716201782227,50.81181335449219 C10.955716133117676,45.89581298828125 7.34571647644043,5.261814594268799 7.34571647644043,5.261814594268799 C7.34571647644043,5.261814594268799 -8.431915283203125,29.418519973754883 -61.26991653442383,23.9885196685791 C-61.26991653442383,23.9885196685791 -64.34224700927734,-50.75053405761719 14.72599983215332,-38.308998107910156 C39.99232482910156,-34.33005905151367 60.63999938964844,-12.095000267028809 62.5099983215332,21.145999908447266 C63.81999969482422,44.441001892089844 57.15599822998047,41.16299819946289 57.15599822998047,41.16299819946289 C57.15599822998047,41.16299819946289 57.15700149536133,41.16299819946289 57.15700149536133,41.16299819946289z"></path>
                </g>
                <g opacity="1" transform="matrix(1,0,0,1,893.1510009765625,491.37701416015625)">
                    <path fill="rgb(22,78,97)" fill-opacity="1"
                        d=" M0.8744627833366394,-22.790000915527344 C13.360116004943848,-22.790000915527344 23.4827823638916,-12.586000442504883 23.4827823638916,0 C23.4827823638916,12.586000442504883 13.360116004943848,22.790000915527344 0.8744627833366394,22.790000915527344 C-11.612190246582031,22.790000915527344 -21.733762741088867,12.586000442504883 -21.733762741088867,0 C-21.733762741088867,-12.586000442504883 -11.612190246582031,-22.790000915527344 0.8744627833366394,-22.790000915527344z"></path>
                </g>
                <g opacity="1" transform="matrix(1,0,0,1,861.6309814453125,517.7429809570312)">
                    <path fill="rgb(22,78,97)" fill-opacity="1"
                        d=" M33.70578384399414,-9.296319007873535 C33.040977478027344,-9.781318664550781 32.10930633544922,-9.630411148071289 31.626108169555664,-8.95941162109375 C31.626108169555664,-8.95941162109375 29.896648406982422,-6.550411224365234 29.896648406982422,-6.550411224365234 C25.615312576293945,-0.5874112844467163 18.698753356933594,2.9716813564300537 11.396160125732422,2.9716813564300537 C11.396160125732422,2.9716813564300537 -16.13328742980957,2.9716813564300537 -16.13328742980957,2.9716813564300537 C-16.13328742980957,2.9716813564300537 -16.13328742980957,2.3855886459350586 -16.13328742980957,2.3855886459350586 C-16.13328742980957,0.7285887002944946 -17.465808868408203,-0.6144112944602966 -19.10991668701172,-0.6144112944602966 C-19.10991668701172,-0.6144112944602966 -28.426651000976562,-0.6144112944602966 -28.426651000976562,-0.6144112944602966 C-30.07076072692871,-0.6144112944602966 -31.40328025817871,0.7285887002944946 -31.40328025817871,2.3855886459350586 C-31.40328025817871,2.3855886459350586 -31.40328025817871,6.7765889167785645 -31.40328025817871,6.7765889167785645 C-31.40328025817871,8.433588981628418 -30.07076072692871,9.776588439941406 -28.426651000976562,9.776588439941406 C-28.426651000976562,9.776588439941406 -19.10991668701172,9.776588439941406 -19.10991668701172,9.776588439941406 C-17.465808868408203,9.776588439941406 -16.13328742980957,8.433588981628418 -16.13328742980957,6.7765889167785645 C-16.13328742980957,6.7765889167785645 -16.13328742980957,5.971681594848633 -16.13328742980957,5.971681594848633 C-16.13328742980957,5.971681594848633 11.396160125732422,5.971681594848633 11.396160125732422,5.971681594848633 C19.651241302490234,5.971681594848633 27.468751907348633,1.9485887289047241 32.3087272644043,-4.7924113273620605 C32.3087272644043,-4.7924113273620605 34.03909683227539,-7.201411247253418 34.03909683227539,-7.201411247253418 C34.51929473876953,-7.872411251068115 34.37158966064453,-8.81041145324707 33.70578384399414,-9.296411514282227 C33.70578384399414,-9.296411514282227 33.70578384399414,-9.296319007873535 33.70578384399414,-9.296319007873535z"></path>
                </g>
                <g opacity="1" transform="matrix(1,0,0,1,0.64923095703125,0)">
                    <g opacity="1" transform="matrix(1,0,0,1,811.3619995117188,467.10198974609375)">
                        <path fill="rgb(9,9,9)" fill-opacity="1"
                            d=" M-8.133000373840332,1.8109999895095825 C-8.038000106811523,2.7070000171661377 -4.665999889373779,2.614000082015991 -0.17900000512599945,1.9079999923706055 C4.309000015258789,1.2020000219345093 8.284000396728516,0.3659999966621399 8.118000030517578,-0.7440000176429749 C7.9070000648498535,-2.1459999084472656 4.081999778747559,-2.7070000171661377 -0.4059999883174896,-2.000999927520752 C-4.894999980926514,-1.2949999570846558 -8.284000396728516,0.40299999713897705 -8.135000228881836,1.812000036239624 C-8.135000228881836,1.812000036239624 -8.133000373840332,1.8109999895095825 -8.133000373840332,1.8109999895095825z"></path>
                    </g>
                    <g opacity="1" transform="matrix(1,0,0,1,821.322998046875,492.7659912109375)">
                        <path fill="rgb(9,9,9)" fill-opacity="1"
                            d=" M3.74399995803833,8.371999740600586 C4.327000141143799,8.371999740600586 4.826000213623047,7.933000087738037 4.888000011444092,7.341000080108643 C4.953999996185303,6.708000183105469 4.49399995803833,6.142000198364258 3.859999895095825,6.076000213623047 C3.859999895095825,6.076000213623047 -2.236999988555908,5.438000202178955 -2.236999988555908,5.438000202178955 C-2.236999988555908,5.438000202178955 1.5160000324249268,-6.744999885559082 1.5160000324249268,-6.744999885559082 C1.7039999961853027,-7.353000164031982 1.3609999418258667,-7.997000217437744 0.753000020980835,-8.1850004196167 C0.14499999582767487,-8.371999740600586 -0.49900001287460327,-8.031000137329102 -0.6880000233650208,-7.423999786376953 C-0.6880000233650208,-7.423999786376953 -4.854000091552734,6.0980000495910645 -4.854000091552734,6.0980000495910645 C-4.953999996185303,6.427000045776367 -4.9019999504089355,6.784999847412109 -4.710999965667725,7.072000026702881 C-4.521999835968018,7.359000205993652 -4.2129998207092285,7.546999931335449 -3.869999885559082,7.583000183105469 C-3.869999885559082,7.583000183105469 3.621999979019165,8.366000175476074 3.621999979019165,8.366000175476074 C3.6619999408721924,8.369999885559082 3.7039999961853027,8.371999740600586 3.742000102996826,8.371999740600586 C3.742000102996826,8.371999740600586 3.74399995803833,8.371999740600586 3.74399995803833,8.371999740600586z"></path>
                    </g>
                    <g opacity="1" transform="matrix(1,0,0,1,834.1849975585938,509.9779968261719)">
                        <path fill="rgb(9,9,9)" fill-opacity="1"
                            d=" M-4.698999881744385,4.203000068664551 C5.739999771118164,4.203000068664551 8.847000122070312,-2.1040000915527344 8.986000061035156,-2.4000000953674316 C9.256999969482422,-2.9749999046325684 9.01099967956543,-3.6619999408721924 8.435999870300293,-3.934000015258789 C7.863999843597412,-4.204999923706055 7.181000232696533,-3.9600000381469727 6.90500020980835,-3.3889999389648438 C6.776000022888184,-3.121000051498413 3.5880000591278076,3.075000047683716 -7.900000095367432,1.7020000219345093 C-8.545000076293945,1.621999979019165 -9.105999946594238,2.0769999027252197 -9.180999755859375,2.7079999446868896 C-9.256999969482422,3.3399999141693115 -8.805000305175781,3.9130001068115234 -8.175000190734863,3.98799991607666 C-6.934999942779541,4.136000156402588 -5.7769999504089355,4.203999996185303 -4.699999809265137,4.203999996185303 C-4.699999809265137,4.203999996185303 -4.698999881744385,4.203000068664551 -4.698999881744385,4.203000068664551z"></path>
                    </g>
                    <g opacity="1" transform="matrix(1,0,0,1,846.1959838867188,470.218994140625)">
                        <path fill="rgb(9,9,9)" fill-opacity="1"
                            d=" M-7.995999813079834,-1.9079999923706055 C-8.272000312805176,-1.0499999523162842 -5.1519999504089355,0.2329999953508377 -0.7639999985694885,1.409000039100647 C3.625999927520752,2.5850000381469727 7.5970001220703125,3.433000087738037 7.895999908447266,2.3510000705718994 C8.27299976348877,0.9850000143051147 5.001999855041504,-1.0809999704360962 0.6119999885559082,-2.256999969482422 C-3.7750000953674316,-3.433000087738037 -7.560999870300293,-3.25600004196167 -7.995999813079834,-1.906999945640564 C-7.995999813079834,-1.906999945640564 -7.995999813079834,-1.9079999923706055 -7.995999813079834,-1.9079999923706055z"></path>
                    </g>
                    <g opacity="1" transform="matrix(1,0,0,1,0.2318115234375,0)">
                        <g opacity="1"
                            transform="matrix(1,0,0,1,809.468994140625,477.5010070800781)">
                            <path fill="rgb(9,9,9)" fill-opacity="1"
                                d=" M0,-2.878999948501587 C1.590000033378601,-2.878999948501587 2.878999948501587,-1.590000033378601 2.878999948501587,0 C2.878999948501587,1.590000033378601 1.590000033378601,2.878999948501587 0,2.878999948501587 C-1.590000033378601,2.878999948501587 -2.878999948501587,1.590000033378601 -2.878999948501587,0 C-2.878999948501587,-1.590000033378601 -1.590000033378601,-2.878999948501587 0,-2.878999948501587z"></path>
                        </g>
                        <g opacity="1"
                            transform="matrix(1,0,0,1,838.3419799804688,479.3370056152344)">
                            <path fill="rgb(9,9,9)" fill-opacity="1"
                                d=" M0,-2.878999948501587 C1.590000033378601,-2.878999948501587 2.878999948501587,-1.590000033378601 2.878999948501587,0 C2.878999948501587,1.590000033378601 1.590000033378601,2.878999948501587 0,2.878999948501587 C-1.590000033378601,2.878999948501587 -2.878999948501587,1.590000033378601 -2.878999948501587,0 C-2.878999948501587,-1.590000033378601 -1.590000033378601,-2.878999948501587 0,-2.878999948501587z"></path>
                        </g>
                    </g>
                </g>
                <g opacity="1" transform="matrix(1,0,0,1,870.6640014648438,440.4010009765625)">
                    <path fill="rgb(22,78,97)" fill-opacity="1"
                        d=" M27.759305953979492,47.834224700927734 C26.10330581665039,47.834224700927734 24.759305953979492,46.49122619628906 24.759305953979492,44.834224700927734 C24.759305953979492,44.834224700927734 24.759305953979492,10.660225868225098 24.759305953979492,10.660225868225098 C24.759305953979492,-6.729774475097656 19.94730567932129,-20.507774353027344 10.84030532836914,-29.18677520751953 C2.20930552482605,-37.41277313232422 -10.965999603271484,-41.472999572753906 -26.75200080871582,-40.71699905395508 C-28.389999389648438,-40.6349983215332 -29.812999725341797,-41.91400146484375 -29.892000198364258,-43.56999969482422 C-29.972000122070312,-45.224998474121094 -28.695999145507812,-46.63100051879883 -27.040000915527344,-46.71099853515625 C-9.548999786376953,-47.555999755859375 5.11430549621582,-42.933773040771484 14.981306076049805,-33.5307731628418 C25.30330467224121,-23.692773818969727 30.760305404663086,-8.411774635314941 30.760305404663086,10.659225463867188 C30.760305404663086,10.659225463867188 30.760305404663086,44.83322525024414 30.760305404663086,44.83322525024414 C30.760305404663086,46.49022674560547 29.41730499267578,47.83322525024414 27.760305404663086,47.83322525024414 C27.760305404663086,47.83322525024414 27.759305953979492,47.834224700927734 27.759305953979492,47.834224700927734z"></path>
                </g>
                <g opacity="1" transform="matrix(1,0,0,1,898.6190185546875,491.37701416015625)">
                    <path fill="rgb(245,143,32)" fill-opacity="1"
                        d=" M0.9238014221191406,-22.790000915527344 C13.358168601989746,-22.790000915527344 23.439193725585938,-12.586000442504883 23.439193725585938,0 C23.439193725585938,12.586000442504883 13.358168601989746,22.790000915527344 0.9238014221191406,22.790000915527344 C-11.511565208435059,22.790000915527344 -21.59168243408203,12.586000442504883 -21.59168243408203,0 C-21.59168243408203,-12.586000442504883 -11.511565208435059,-22.790000915527344 0.9238014221191406,-22.790000915527344z"></path>
                </g>
            </g>
        </g>
        <g transform="matrix(1,0,0,1,0,0)" opacity="1" style="display: block;">
            <g opacity="1" transform="matrix(1,0,0,1,574.8300170898438,716.885009765625)">
                <path fill="rgb(41,41,46)" fill-opacity="1"
                    d=" M136.63900756835938,71.12200164794922 C136.63900756835938,71.12200164794922 87.71499633789062,-79.26799774169922 87.71499633789062,-79.26799774169922 C85.95099639892578,-84.68900299072266 80.89800262451172,-88.35700225830078 75.197998046875,-88.35700225830078 C75.197998046875,-88.35700225830078 -124.12100219726562,-88.35700225830078 -124.12100219726562,-88.35700225830078 C-133.0659942626953,-88.35700225830078 -139.406005859375,-79.62799835205078 -136.63900756835938,-71.12200164794922 C-136.63900756835938,-71.12200164794922 -87.71499633789062,79.26799774169922 -87.71499633789062,79.26799774169922 C-85.95099639892578,84.68800354003906 -80.89800262451172,88.35700225830078 -75.1969985961914,88.35700225830078 C-75.1969985961914,88.35700225830078 124.12100219726562,88.35700225830078 124.12100219726562,88.35700225830078 C133.06700134277344,88.35700225830078 139.40699768066406,79.62799835205078 136.63900756835938,71.12200164794922z"></path>
            </g>
            <g opacity="1" transform="matrix(1,0,0,1,738.27099609375,799.14599609375)">
                <path fill="rgb(41,41,46)" fill-opacity="1"
                    d=" M-66.71099853515625,-6.0970001220703125 C-66.71099853515625,-6.0970001220703125 66.71199798583984,-6.0970001220703125 66.71199798583984,-6.0970001220703125 C70.03600311279297,-6.0970001220703125 72.73100280761719,-3.4019999504089355 72.73100280761719,-0.07599999755620956 C72.73100280761719,-0.07599999755620956 72.73100280761719,0.07699999958276749 72.73100280761719,0.07699999958276749 C72.73100280761719,3.4019999504089355 70.03600311279297,6.0970001220703125 66.71199798583984,6.0970001220703125 C66.71199798583984,6.0970001220703125 -66.71099853515625,6.0970001220703125 -66.71099853515625,6.0970001220703125 C-70.03500366210938,6.0970001220703125 -72.73100280761719,3.4019999504089355 -72.73100280761719,0.07699999958276749 C-72.73100280761719,0.07699999958276749 -72.73100280761719,-0.07599999755620956 -72.73100280761719,-0.07599999755620956 C-72.73100280761719,-3.4019999504089355 -70.03500366210938,-6.0970001220703125 -66.71099853515625,-6.0970001220703125z"></path>
            </g>
            <g opacity="1" transform="matrix(1,0,0,1,571.8309936523438,721.2210083007812)">
                <path fill="rgb(255,255,255)" fill-opacity="1"
                    d=" M0,-20.905000686645508 C11.545999526977539,-20.905000686645508 20.905000686645508,-11.545999526977539 20.905000686645508,-0.0010000000474974513 C20.905000686645508,11.545000076293945 11.545999526977539,20.905000686645508 0,20.905000686645508 C-11.545999526977539,20.905000686645508 -20.905000686645508,11.545000076293945 -20.905000686645508,-0.0010000000474974513 C-20.905000686645508,-11.545999526977539 -11.545999526977539,-20.905000686645508 0,-20.905000686645508z"></path>
            </g>
        </g>
        <g transform="matrix(1,0,0,1,0,0)" opacity="1" style="display: block;">
            <g opacity="1" transform="matrix(1,0,0,2.5,742.2780151367188,806.7860107421875)">
                <path fill="rgb(41,41,46)" fill-opacity="1"
                    d=" M-276.5,1 C-276.5,1 276.5,1 276.5,1 C277.0509948730469,1 277.5,0.5519999861717224 277.5,0 C277.5,-0.5519999861717224 277.0509948730469,-1 276.5,-1 C276.5,-1 -276.5,-1 -276.5,-1 C-277.052001953125,-1 -277.5,-0.5519999861717224 -277.5,0 C-277.5,0.5519999861717224 -277.052001953125,1 -276.5,1z"></path>
            </g>
        </g>
    </g>
</svg>