<svg width="41" height="41" viewBox="0 0 41 41" fill="none" xmlns="http://www.w3.org/2000/svg">
<path d="M17.1702 20.82H14.2202V16.73H17.1502C17.1502 16.47 17.1502 16.25 17.1502 16.04C17.1602 14.88 17.0702 13.71 17.2102 12.56C17.5102 10.05 19.2402 8.39 21.8402 8.14C23.1402 8.02 24.4702 8.11999 25.7802 8.11999V12.03C25.0102 12.03 24.3002 12.02 23.5902 12.03C23.1802 12.03 22.7602 12.06 22.3602 12.14C21.9402 12.22 21.6002 12.51 21.5902 12.94C21.5502 14.17 21.5802 15.41 21.5802 16.69H25.8702C25.8102 18.08 25.7602 19.42 25.7002 20.8H21.5102V32.01H17.1802V20.81L17.1702 20.82Z" fill="#7FA842"/>
<path d="M31.2 40.09H8.9C3.99 40.09 0 36.1 0 31.19V8.9C0 3.99 3.99 0 8.9 0H31.2C36.11 0 40.1 3.99 40.1 8.9V31.2C40.1 36.11 36.11 40.1 31.2 40.1V40.09ZM8.9 1.89C5.04 1.89 1.89 5.03 1.89 8.9V31.2C1.89 35.06 5.03 38.21 8.9 38.21H31.2C35.06 38.21 38.21 35.07 38.21 31.2V8.9C38.21 5.04 35.07 1.89 31.2 1.89H8.9Z" fill="#7FA842"/>
</svg>
