<svg width="217" height="72" viewBox="0 0 217 72" fill="none" xmlns="http://www.w3.org/2000/svg">
<path d="M7.31638 44.4457L1.67039 47.3624L4.66695 14.4402C4.96222 11.4037 7.11688 9.10938 9.67852 9.10938H45.4697C47.9954 9.10938 50.1221 11.3678 50.4174 14.3643L52.0015 28.9761L6.57422 56.0928L5.33729 65.0346H49.9506L47.2573 35.041L52.3127 32.4754L55.1098 64.4002C55.4409 68.0471 53.0549 71.2312 49.9825 71.2432L5.4969 71.4148C2.22502 71.4267 -0.328648 68.0351 0.0344505 64.1528L1.83399 51.0453L46.3316 24.4832L45.366 15.0865H9.67453L7.32037 44.4497L7.31638 44.4457Z" fill="white"/>
<path d="M37.2182 9.65604V16.523H31.8795V9.65604C31.8795 8.46699 31.3967 7.38567 30.6146 6.60361C29.8326 5.82155 28.7552 5.33875 27.5622 5.33875C25.1801 5.33875 23.2489 7.26996 23.2489 9.65205V16.519H17.9102V9.65205C17.9102 4.32128 22.2314 0 27.5622 0C32.893 0 37.2142 4.32128 37.2142 9.65205L37.2182 9.65604Z" fill="white"/>
<path d="M18.3811 35.1928C21.3384 35.1928 23.7358 32.7954 23.7358 29.8381C23.7358 26.8808 21.3384 24.4834 18.3811 24.4834C15.4238 24.4834 13.0264 26.8808 13.0264 29.8381C13.0264 32.7954 15.4238 35.1928 18.3811 35.1928Z" fill="white"/>
<path d="M18.3807 32.735C19.9806 32.735 21.2775 31.4381 21.2775 29.8382C21.2775 28.2384 19.9806 26.9414 18.3807 26.9414C16.7808 26.9414 15.4839 28.2384 15.4839 29.8382C15.4839 31.4381 16.7808 32.735 18.3807 32.735Z" fill="white"/>
<path d="M35.8137 57.2656C38.771 57.2656 41.1684 54.8682 41.1684 51.9109C41.1684 48.9535 38.771 46.5562 35.8137 46.5562C32.8564 46.5562 30.459 48.9535 30.459 51.9109C30.459 54.8682 32.8564 57.2656 35.8137 57.2656Z" fill="white"/>
<path d="M35.8138 54.8078C37.4137 54.8078 38.7106 53.5108 38.7106 51.911C38.7106 50.3111 37.4137 49.0142 35.8138 49.0142C34.2139 49.0142 32.917 50.3111 32.917 51.911C32.917 53.5108 34.2139 54.8078 35.8138 54.8078Z" fill="white"/>
<path d="M92.9161 28.7368H85.9893V53.5752H92.9161V28.7368Z" fill="white"/>
<path d="M114.243 28.6929L108.058 44.342L101.874 28.6929H94.6714L104.503 53.5751H111.613L121.445 28.6929H114.243Z" fill="white"/>
<path d="M133.128 48.0289C131.668 48.0289 130.355 47.61 129.19 46.7761C128.025 45.9421 127.342 44.8648 127.131 43.5521H143.941C143.518 41.9161 143.311 40.1804 143.311 38.341C143.311 37.124 143.291 35.7235 143.474 34.5943C142.904 33.4172 142.222 32.6152 141.2 31.7334C138.89 29.7383 136.077 28.7368 132.765 28.7368C129.453 28.7368 126.584 29.854 124.15 32.0965C121.72 34.3309 120.503 37.3514 120.503 41.138C120.503 44.9247 121.7 47.9491 124.087 50.1996C126.473 52.45 129.493 53.5752 133.148 53.5752C136.803 53.5752 139.987 52.2944 142.704 49.7247L138.946 45.6548C137.425 47.2349 135.482 48.0249 133.128 48.0249V48.0289ZM129.234 35.496C130.339 34.69 131.556 34.291 132.881 34.291C134.205 34.291 135.339 34.6781 136.26 35.4561C137.186 36.2302 137.721 37.3355 137.868 38.7679H127.307C127.486 37.3953 128.129 36.302 129.23 35.5L129.234 35.496Z" fill="white"/>
<path d="M70.4717 47.159V21.3071H63.2695V53.575H84.2295V47.159H70.4717Z" fill="white"/>
<path d="M92.1419 21.1671C91.4078 20.4329 90.51 20.0698 89.4526 20.0698C88.3953 20.0698 87.4935 20.4329 86.7633 21.1671C86.0291 21.8973 85.666 22.7951 85.666 23.8564C85.666 24.9178 86.0291 25.8156 86.7633 26.5458C87.4975 27.2759 88.3953 27.643 89.4526 27.643C90.51 27.643 91.4118 27.2759 92.1419 26.5458C92.8761 25.8116 93.2392 24.9138 93.2392 23.8564C93.2392 22.7991 92.8761 21.8933 92.1419 21.1671Z" fill="white"/>
<path d="M168.229 66.8145C169.406 66.8145 170.368 66.3476 171.114 65.4179L172.65 66.998C171.433 68.3706 169.996 69.0529 168.345 69.0529C166.693 69.0529 165.332 68.5302 164.263 67.4888C163.193 66.4434 162.659 65.1267 162.659 63.5386C162.659 61.9505 163.205 60.6218 164.295 59.5565C165.384 58.4911 166.717 57.9604 168.293 57.9604C170.052 57.9604 171.525 58.6308 172.714 59.9714L171.225 61.6593C170.467 60.7176 169.526 60.2468 168.4 60.2468C167.499 60.2468 166.729 60.542 166.09 61.1286C165.452 61.7151 165.133 62.5092 165.133 63.5067C165.133 64.5042 165.436 65.3062 166.038 65.9087C166.641 66.5112 167.375 66.8145 168.233 66.8145H168.229Z" fill="white"/>
<path d="M181.141 64.8031C181.141 66.0001 180.726 67.0096 179.9 67.8276C179.07 68.6456 178.029 69.0565 176.776 69.0565C175.523 69.0565 174.481 68.6495 173.652 67.8276C172.822 67.0096 172.411 66.0001 172.411 64.8031C172.411 63.6061 172.826 62.5966 173.652 61.7706C174.481 60.9487 175.523 60.5337 176.776 60.5337C178.029 60.5337 179.07 60.9447 179.9 61.7706C180.73 62.5926 181.141 63.6061 181.141 64.8031ZM174.725 64.8031C174.725 65.4774 174.916 66.0281 175.299 66.451C175.683 66.874 176.173 67.0894 176.772 67.0894C177.37 67.0894 177.861 66.878 178.244 66.451C178.627 66.0281 178.819 65.4774 178.819 64.8031C178.819 64.1288 178.627 63.5742 178.244 63.1472C177.861 62.7163 177.37 62.5048 176.772 62.5048C176.173 62.5048 175.683 62.7203 175.299 63.1472C174.916 63.5781 174.725 64.1288 174.725 64.8031Z" fill="white"/>
<path d="M182.968 37.9575C182.968 43.1287 181.117 47.4819 177.414 51.0171C173.711 54.5523 169.059 56.3199 163.457 56.3199C157.855 56.3199 153.202 54.5523 149.5 51.0171C145.797 47.4819 143.945 43.1287 143.945 37.9575C143.945 32.7863 145.797 28.4212 149.5 24.866C153.202 21.3108 157.855 19.5312 163.457 19.5312C169.059 19.5312 173.711 21.3108 177.414 24.866C181.117 28.4252 182.968 32.7863 182.968 37.9575ZM154.3 37.9575C154.3 40.8743 155.157 43.2524 156.869 45.0838C158.585 46.9193 160.78 47.833 163.453 47.833C166.126 47.833 168.321 46.9153 170.037 45.0838C171.752 43.2484 172.61 40.8743 172.61 37.9575C172.61 35.0408 171.752 32.6547 170.037 30.7993C168.321 28.9439 166.126 28.0142 163.453 28.0142C160.78 28.0142 158.585 28.9439 156.869 30.7993C155.154 32.6547 154.3 35.0408 154.3 37.9575Z" fill="white"/>
<path d="M187.418 65.1267V60.6777H189.736V68.9332H187.418V67.8439C186.843 68.6539 186.105 69.0569 185.199 69.0569C184.293 69.0569 183.535 68.7736 182.921 68.207C182.306 67.6405 181.999 66.7985 181.999 65.6813V60.6777H184.317V65.1746C184.317 66.4434 184.784 67.0778 185.714 67.0778C186.173 67.0778 186.572 66.9103 186.911 66.5791C187.25 66.2479 187.418 65.7651 187.418 65.1307V65.1267Z" fill="white"/>
<path d="M195.509 60.5376C196.471 60.5376 197.329 60.9406 198.079 61.7426C198.829 62.5446 199.208 63.5541 199.208 64.7751C199.208 65.996 198.833 67.0095 198.079 67.8275C197.329 68.6455 196.447 69.0565 195.441 69.0565C194.436 69.0565 193.622 68.6535 193.007 67.8435V71.4146H190.705V60.6773H193.007V61.599C193.714 60.8927 194.548 60.5416 195.509 60.5416V60.5376ZM192.979 64.811C192.979 65.4813 193.167 66.028 193.538 66.4509C193.913 66.8739 194.364 67.0893 194.895 67.0893C195.425 67.0893 195.892 66.8779 196.291 66.4509C196.69 66.028 196.89 65.4813 196.89 64.815C196.89 64.1486 196.694 63.594 196.307 63.1431C195.92 62.6922 195.453 62.4688 194.911 62.4688C194.368 62.4688 193.909 62.6923 193.538 63.1352C193.163 63.582 192.979 64.1367 192.979 64.807V64.811Z" fill="white"/>
<path d="M208.413 64.8031C208.413 66.0001 207.998 67.0096 207.173 67.8276C206.343 68.6456 205.301 69.0565 204.048 69.0565C202.795 69.0565 201.754 68.6495 200.924 67.8276C200.094 67.0096 199.683 66.0001 199.683 64.8031C199.683 63.6061 200.098 62.5966 200.924 61.7706C201.754 60.9487 202.795 60.5337 204.048 60.5337C205.301 60.5337 206.343 60.9447 207.173 61.7706C208.002 62.5926 208.413 63.6061 208.413 64.8031ZM202.001 64.8031C202.001 65.4774 202.193 66.0281 202.576 66.451C202.959 66.874 203.45 67.0894 204.048 67.0894C204.647 67.0894 205.138 66.878 205.521 66.451C205.904 66.0281 206.095 65.4774 206.095 64.8031C206.095 64.1288 205.904 63.5742 205.521 63.1472C205.138 62.7163 204.647 62.5048 204.048 62.5048C203.45 62.5048 202.959 62.7203 202.576 63.1472C202.193 63.5781 202.001 64.1288 202.001 64.8031Z" fill="white"/>
<path d="M211.585 64.3281V68.9327H209.283V60.6772H211.585V61.5989C212.28 60.8926 213.062 60.5415 213.932 60.5415C214.802 60.5415 215.532 60.8487 216.118 61.4632C216.705 62.0777 217 62.8957 217 63.9171V68.9367H214.698V64.2722C214.698 63.0034 214.231 62.369 213.301 62.369C212.842 62.369 212.439 62.5365 212.096 62.8677C211.753 63.1989 211.582 63.6897 211.582 64.3321L211.585 64.3281Z" fill="white"/>
<path d="M193.977 28.481V30.093H199.795V34.925H193.977V53.5747H187.222V34.925H183.336C183.276 34.2307 183.152 33.3928 182.893 32.4671C182.629 31.5214 182.294 30.7234 181.983 30.093H187.222V28.6166C187.222 25.9911 188.02 23.9123 189.616 22.3761C191.212 20.8399 193.195 20.0698 195.565 20.0698C197.935 20.0698 200.09 20.9636 202.029 22.7552L199.611 27.2759C198.626 26.1428 197.536 25.5762 196.343 25.5762C195.657 25.5762 195.09 25.8236 194.643 26.3143C194.197 26.8051 193.973 27.5313 193.973 28.4849L193.977 28.481Z" fill="white"/>
<path d="M208.944 28.481V30.093H214.762V34.925H208.944V53.5747H202.189V34.925H196.774V30.093H202.189V28.6166C202.189 25.9911 202.987 23.9123 204.583 22.3761C206.179 20.8399 208.162 20.0698 210.532 20.0698C212.902 20.0698 215.057 20.9636 217 22.7552L214.582 27.2759C213.597 26.1428 212.507 25.5762 211.314 25.5762C210.628 25.5762 210.061 25.8236 209.615 26.3143C209.168 26.8051 208.944 27.5313 208.944 28.4849V28.481Z" fill="white"/>
</svg>
