<svg width="41" height="41" viewBox="0 0 41 41" fill="none" xmlns="http://www.w3.org/2000/svg">
<path d="M20.8803 32.02C19.2003 32.02 17.5203 32.04 15.8503 32.02C13.4203 31.98 11.4103 31.09 10.0303 29.02C9.27032 27.89 8.94032 26.6 8.93032 25.25C8.91032 21.78 8.89032 18.31 8.93032 14.84C8.96032 12.7 9.71032 10.85 11.4503 9.50002C12.6703 8.55002 14.0803 8.12002 15.6003 8.11002C19.1303 8.08002 22.6503 8.08002 26.1803 8.11002C29.0903 8.14002 31.3803 9.77002 32.4103 12.45C32.7103 13.24 32.8503 14.07 32.8503 14.91C32.8503 18.36 32.8803 21.8 32.8503 25.25C32.8303 27.42 32.0703 29.29 30.2903 30.64C28.9603 31.65 27.4303 32.02 25.7903 32.02C24.1603 32.02 22.5203 32.02 20.8903 32.02H20.8803ZM20.9703 10.33C19.1703 10.33 17.3703 10.31 15.5603 10.34C14.2403 10.37 13.0703 10.8 12.1903 11.85C11.4403 12.74 11.1503 13.8 11.1503 14.94C11.1503 16.69 11.1503 18.43 11.1503 20.18C11.1503 21.96 11.1203 23.74 11.1803 25.52C11.2703 27.89 12.8503 29.53 15.2003 29.74C16.1203 29.82 17.0603 29.79 17.9903 29.79C20.6303 29.79 23.2703 29.81 25.9103 29.79C28.8103 29.77 30.6403 27.97 30.7303 25.07C30.7503 24.36 30.7303 23.64 30.7303 22.93C30.7303 20.34 30.7303 17.74 30.7303 15.15C30.7303 13.62 30.2603 12.27 29.0203 11.28C28.2003 10.63 27.2403 10.35 26.2003 10.34C24.4503 10.33 22.7103 10.34 20.9603 10.34L20.9703 10.33Z" fill="#7FA842"/>
<path d="M20.9304 13.8301C24.3304 13.8701 27.1004 16.6901 27.0704 20.0801C27.0404 23.4701 24.2004 26.2301 20.8004 26.1901C17.4104 26.1501 14.6704 23.3401 14.7004 19.9501C14.7304 16.5701 17.5604 13.8001 20.9304 13.8301ZM20.8804 23.9601C23.0604 23.9601 24.8404 22.1801 24.8304 20.0101C24.8304 17.8301 23.0604 16.0601 20.8704 16.0701C18.7104 16.0701 16.9304 17.8401 16.9304 20.0001C16.9304 22.1701 18.7104 23.9601 20.8804 23.9701V23.9601Z" fill="#7FA842"/>
<path d="M27.3303 12.3001C28.0903 12.3101 28.7103 12.9301 28.7103 13.6901C28.7103 14.4601 28.0603 15.0901 27.2903 15.0901C26.5103 15.0901 25.9003 14.4501 25.9103 13.6701C25.9103 12.8801 26.5403 12.2901 27.3303 12.3001Z" fill="#7FA842"/>
<path d="M32.0301 40.09H9.73008C4.82008 40.09 0.830078 36.1 0.830078 31.19V8.9C0.830078 3.99 4.82008 0 9.73008 0H32.0301C36.9401 0 40.9301 3.99 40.9301 8.9V31.2C40.9301 36.11 36.9401 40.1 32.0301 40.1V40.09ZM9.73008 1.89C5.87008 1.89 2.72008 5.03 2.72008 8.9V31.2C2.72008 35.06 5.86008 38.21 9.73008 38.21H32.0301C35.8901 38.21 39.0401 35.07 39.0401 31.2V8.9C39.0401 5.04 35.9001 1.89 32.0301 1.89H9.73008Z" fill="#7FA842"/>
</svg>
