<svg width="74" height="96" viewBox="0 0 74 96" fill="none" xmlns="http://www.w3.org/2000/svg">
<path d="M9.77765 59.3975L2.23232 63.2954L6.23694 19.2979C6.63154 15.24 9.51103 12.1738 12.9344 12.1738H60.766C64.1414 12.1738 66.9835 15.192 67.3781 19.1966L69.4951 38.7238L8.78583 74.9627L7.13279 86.9126H66.7542L63.1549 46.829L69.911 43.4003L73.649 86.0647C74.0916 90.9385 70.9028 95.1938 66.7969 95.2098L7.34609 95.4391C2.97353 95.4551 -0.439208 90.9225 0.0460399 85.7341L2.45095 68.2172L61.9178 32.7195L60.6273 20.1618H12.9291L9.78298 59.4028L9.77765 59.3975Z" fill="#7FA842"/>
<path d="M49.7385 12.9044V22.0814H42.6038V12.9044C42.6038 11.3153 41.9585 9.87024 40.9134 8.8251C39.8682 7.77995 38.4285 7.13474 36.8341 7.13474C33.6507 7.13474 31.0698 9.71561 31.0698 12.899V22.0761H23.9351V12.899C23.9351 5.77498 29.71 0 36.8341 0C43.9582 0 49.7332 5.77498 49.7332 12.899L49.7385 12.9044Z" fill="#14303B"/>
<path d="M24.5643 47.0317C28.5165 47.0317 31.7203 43.8278 31.7203 39.8756C31.7203 35.9234 28.5165 32.7195 24.5643 32.7195C20.6121 32.7195 17.4082 35.9234 17.4082 39.8756C17.4082 43.8278 20.6121 47.0317 24.5643 47.0317Z" fill="#14303B"/>
<path d="M24.5642 43.7469C26.7022 43.7469 28.4355 42.0137 28.4355 39.8756C28.4355 37.7375 26.7022 36.0043 24.5642 36.0043C22.4261 36.0043 20.6929 37.7375 20.6929 39.8756C20.6929 42.0137 22.4261 43.7469 24.5642 43.7469Z" fill="white"/>
<path d="M47.8616 76.5304C51.8138 76.5304 55.0177 73.3266 55.0177 69.3744C55.0177 65.4222 51.8138 62.2183 47.8616 62.2183C43.9094 62.2183 40.7056 65.4222 40.7056 69.3744C40.7056 73.3266 43.9094 76.5304 47.8616 76.5304Z" fill="#14303B"/>
<path d="M47.8616 73.2457C49.9996 73.2457 51.7329 71.5124 51.7329 69.3744C51.7329 67.2363 49.9996 65.5031 47.8616 65.5031C45.7235 65.5031 43.9902 67.2363 43.9902 69.3744C43.9902 71.5124 45.7235 73.2457 47.8616 73.2457Z" fill="white"/>
</svg>
